<mxfile host="app.diagrams.net" modified="2024-06-28T13:48:47.723Z" agent="Mozilla/5.0 (Windows NT 10.0; Win64; x64) AppleWebKit/537.36 (KHTML, like Gecko) Chrome/125.0.0.0 Safari/537.36" etag="079rGlt6kmwLm1-qXi6v" version="24.6.4" type="github">
  <diagram name="Page-1" id="5quBycj7wjrRjSvd2OeZ">
    <mxGraphModel dx="1434" dy="738" grid="1" gridSize="10" guides="1" tooltips="1" connect="1" arrows="1" fold="1" page="1" pageScale="1" pageWidth="850" pageHeight="1100" math="0" shadow="0">
      <root>
        <mxCell id="0" />
        <mxCell id="1" parent="0" />
        <mxCell id="w_tTYjYgYWr9_yd-dcxg-1" value="" style="shape=cylinder3;whiteSpace=wrap;html=1;boundedLbl=1;backgroundOutline=1;size=15;" vertex="1" parent="1">
          <mxGeometry x="215" y="110" width="210" height="200" as="geometry" />
        </mxCell>
        <mxCell id="w_tTYjYgYWr9_yd-dcxg-2" value="Actor" style="shape=umlActor;verticalLabelPosition=bottom;verticalAlign=top;html=1;outlineConnect=0;" vertex="1" parent="1">
          <mxGeometry x="410" y="350" width="30" height="60" as="geometry" />
        </mxCell>
        <mxCell id="w_tTYjYgYWr9_yd-dcxg-3" value="Vertical Container" style="swimlane;whiteSpace=wrap;html=1;startSize=23;" vertex="1" parent="1">
          <mxGeometry x="570" y="130" width="300" height="280" as="geometry">
            <mxRectangle x="570" y="130" width="140" height="30" as="alternateBounds" />
          </mxGeometry>
        </mxCell>
        <mxCell id="w_tTYjYgYWr9_yd-dcxg-4" value="Vertical Container" style="swimlane;whiteSpace=wrap;html=1;" vertex="1" parent="w_tTYjYgYWr9_yd-dcxg-3">
          <mxGeometry x="40" y="60" width="100" height="140" as="geometry" />
        </mxCell>
        <mxCell id="w_tTYjYgYWr9_yd-dcxg-5" value="Actor" style="shape=umlActor;verticalLabelPosition=bottom;verticalAlign=top;html=1;outlineConnect=0;" vertex="1" parent="w_tTYjYgYWr9_yd-dcxg-3">
          <mxGeometry x="170" y="60" width="30" height="60" as="geometry" />
        </mxCell>
        <mxCell id="w_tTYjYgYWr9_yd-dcxg-6" value="" style="ellipse;shape=cloud;whiteSpace=wrap;html=1;" vertex="1" parent="w_tTYjYgYWr9_yd-dcxg-3">
          <mxGeometry x="160" y="170" width="120" height="80" as="geometry" />
        </mxCell>
      </root>
    </mxGraphModel>
  </diagram>
</mxfile>
